<?xml version="1.0" standalone="no"?><!DOCTYPE svg PUBLIC "-//W3C//DTD SVG 1.1//EN" "http://www.w3.org/Graphics/SVG/1.1/DTD/svg11.dtd"><svg t="1637394539719" class="icon" viewBox="0 0 1024 1024" version="1.1" xmlns="http://www.w3.org/2000/svg" p-id="4893" xmlns:xlink="http://www.w3.org/1999/xlink" width="200" height="200"><defs><style type="text/css"></style></defs><path d="M610.5 576.9c3-13.7-3.9-27.3-16-33.3 29.8-11.4 57.1-29.1 80.4-52.3 43.5-43.5 67.5-101.4 67.5-162.9s-24-119.4-67.5-162.9S573.5 98 512 98s-119.4 24-162.9 67.5-67.5 101.4-67.5 162.9 24 119.4 67.5 162.9c22.9 22.9 49.8 40.4 79 51.8-12.9 3.2-25.6 7-38.1 11.7-37.7 13.9-72.5 34.1-103.5 59.9-62.3 52-105 124.2-120.3 203.5-3.1 16.3 7.5 32 23.8 35.1 1.9 0.4 3.8 0.5 5.7 0.5 14.1 0 26.7-10 29.4-24.3C251.6 692.4 372.2 593 512 593c21.2 0 42.3 2.3 62.8 6.8 16.2 3.5 32.1-6.8 35.7-22.9zM341.6 328.4C341.6 234.5 418 158 512 158s170.4 76.4 170.4 170.4S605.9 498.7 512 498.7s-170.4-76.4-170.4-170.3z m565.7 408.5c-11-7.5-17.6-20-17.6-33.3 0-13.2 6.5-25.6 17.3-33.1l12.6-8.8-5.2-14.4c-7-19.6-17.5-37.6-31.2-53.4l-9.9-11.4-13.7 6.4c-5.4 2.5-11.1 3.8-17 3.8-21 0-38.3-15.7-40.2-36.6L801 541l-14.9-2.8c-20.3-3.8-41.5-3.8-61.8 0l-14.9 2.8-1.4 15.1c-1.9 20.9-19.2 36.6-40.2 36.6-5.9 0-11.7-1.3-17-3.8l-13.7-6.4-9.9 11.4c-13.7 15.8-24.1 33.8-31.2 53.4l-5.2 14.4 12.6 8.8c10.9 7.6 17.3 20 17.3 33.1 0 13.3-6.6 25.8-17.6 33.3l-12.6 8.6 5 14.5c6.8 19.6 17.1 37.6 30.6 53.5l10 11.8 14-6.8c5.5-2.7 11.4-4 17.6-4 21.2 0 38.9 16.5 40.3 37.6l1 15.5 15.3 2.8c10.1 1.9 20.5 2.8 30.8 2.8s20.7-0.9 30.8-2.8l15.3-2.8 1-15.5c1.4-21.1 19.1-37.6 40.3-37.6 6.2 0 12.1 1.4 17.6 4l14 6.8 10-11.8c13.5-15.9 23.8-33.9 30.6-53.5l5-14.5-12.4-8.6z m-45.3 40c-6.3-1.5-12.7-2.3-19.3-2.3-36.4 0-67.7 24.6-77.3 58.4-6.7 0.5-13.5 0.5-20.2 0-9.6-33.8-40.9-58.4-77.3-58.4-6.6 0-13 0.8-19.3 2.3-3.8-5.6-7.2-11.5-10.1-17.6 14.2-14.8 22.4-34.7 22.4-55.6 0-20.7-8-40.4-21.9-55.1 3-6.3 6.5-12.3 10.5-18 6 1.4 12.2 2.1 18.4 2.1 20.2 0 39.5-7.5 54.3-21.1 10.7-9.8 18.4-22.1 22.5-35.7 7-0.6 14-0.6 21 0 4.2 13.6 11.9 25.9 22.5 35.7 14.9 13.6 34.1 21.1 54.3 21.1 6.3 0 12.4-0.7 18.4-2.1 4 5.7 7.5 11.7 10.5 18-13.9 14.8-21.9 34.5-21.9 55.1 0 21 8.2 40.8 22.4 55.6-2.7 6.1-6.1 12-9.9 17.6zM755.3 633.2c-39.2 0-71.2 31.9-71.2 71.2 0 39.2 31.9 71.2 71.2 71.2s71.2-31.9 71.2-71.2c0-39.3-32-71.2-71.2-71.2z m0 102.3c-17.2 0-31.2-14-31.2-31.2s14-31.2 31.2-31.2 31.2 14 31.2 31.2-14 31.2-31.2 31.2z" p-id="4894"></path></svg>