<?xml version="1.0" standalone="no"?><!DOCTYPE svg PUBLIC "-//W3C//DTD SVG 1.1//EN" "http://www.w3.org/Graphics/SVG/1.1/DTD/svg11.dtd"><svg t="1647828549346" class="icon" viewBox="0 0 1024 1024" version="1.1" xmlns="http://www.w3.org/2000/svg" p-id="2310" xmlns:xlink="http://www.w3.org/1999/xlink" width="300" height="300"><defs><style type="text/css"></style></defs><path d="M895.744 273.28a59.2 59.2 0 0 0-46.72-51.936A1103.36 1103.36 0 0 1 697.92 186.56a561.28 561.28 0 0 1-135.008-78.912 61.76 61.76 0 0 0-72.16 0 354.112 354.112 0 0 1-136.032 78.4 507.264 507.264 0 0 1-146.944 36.32 55.04 55.04 0 0 0-46.208 51.936S160 404.64 160 519.36C160 727.04 405.056 928 527.616 928c122.528 0 330.24-141.76 363.456-405.504 8.32-155.776 2.56-248.704 2.56-248.704l2.112-0.544z m-133.44 160.416l-256 241.44c-11.52 10.976-29.12 12.704-42.56 4.16l-6.72-5.728-141.248-146.912a35.264 35.264 0 0 1 51.904-47.776l116.32 122.016 230.528-218.08a35.264 35.264 0 1 1 47.776 51.936v-1.056z" p-id="2311"></path></svg>