<?xml version="1.0" standalone="no"?><!DOCTYPE svg PUBLIC "-//W3C//DTD SVG 1.1//EN" "http://www.w3.org/Graphics/SVG/1.1/DTD/svg11.dtd"><svg t="1647828418574" class="icon" viewBox="0 0 1024 1024" version="1.1" xmlns="http://www.w3.org/2000/svg" p-id="2358" xmlns:xlink="http://www.w3.org/1999/xlink" width="300" height="300"><defs><style type="text/css"></style></defs><path d="M512 589.44L36.096 180.48c2.56-0.576 4.864-1.664 7.488-1.664H980.48c1.6 0 4.992 1.152 7.552 1.6L512 589.44z m510.976-352.384v614.784c0 3.84-1.152 7.168-2.048 10.688l-337.92-348.544L1020.416 224c1.344 4.16 2.56 8.448 2.56 13.056zM3.584 223.936L341.12 513.984 3.2 862.528c-0.832-3.456-2.112-6.848-2.112-10.688V237.056c0-4.672 1.28-8.896 2.56-13.12z m646.528 328.896l340.736 351.36c-3.392 0.896-6.72 2.176-10.432 2.176H43.584c-3.584 0-6.912-1.28-10.24-2.176l340.672-351.36 124.352 106.88a20.672 20.672 0 0 0 27.264 0l124.48-106.88z" p-id="2359"></path></svg>