<?xml version="1.0" standalone="no"?><!DOCTYPE svg PUBLIC "-//W3C//DTD SVG 1.1//EN" "http://www.w3.org/Graphics/SVG/1.1/DTD/svg11.dtd"><svg t="1637394575327" class="icon" viewBox="0 0 1024 1024" version="1.1" xmlns="http://www.w3.org/2000/svg" p-id="5179" xmlns:xlink="http://www.w3.org/1999/xlink" width="200" height="200"><defs><style type="text/css"></style></defs><path d="M527.9 848H222.2c-6.9 0-14.5-8.3-14.5-20.2V203c0-11.9 7.7-20.2 14.5-20.2h536.4c6.9 0 14.5 8.3 14.5 20.2v331.2c0 16.6 13.4 30 30 30s30-13.4 30-30V203c0-44.2-33.4-80.2-74.5-80.2H222.2c-41.1 0-74.5 36-74.5 80.2v624.9c0 44.2 33.4 80.2 74.5 80.2H528c16.6 0 30-13.4 30-30S544.5 848 527.9 848z m143.8-537.2H309.1c-16.6 0-30 13.4-30 30s13.4 30 30 30h362.6c16.6 0 30-13.4 30-30s-13.5-30-30-30z m30 183.6c0-16.6-13.4-30-30-30H309.1c-16.6 0-30 13.4-30 30s13.4 30 30 30h362.6c16.5 0 30-13.4 30-30zM316.8 618.1c-16.6 0-30 13.4-30 30s13.4 30 30 30H480c16.6 0 30-13.4 30-30s-13.4-30-30-30H316.8zM878.1 757c-37.5-29-88.5-28.7-125.4-2.8L706 718.1l29.6-38.4c10.1-13.1 7.7-32-5.4-42.1-13.1-10.1-32-7.7-42.1 5.4l-29.6 38.4-38.2-29.5 29.6-38.3c10.1-13.1 7.7-32-5.4-42.1s-32-7.7-42.1 5.4l-66.3 85.8 179.3 138.5c-17.2 42.8-4.8 93.6 33.5 123.2 19.2 14.8 41.9 22 64.5 22 31.7 0 63-14.1 83.8-41.1 35.6-46.2 27.1-112.7-19.1-148.3z m-28.4 111.6c-7.5 9.7-18.3 15.9-30.4 17.4-12.1 1.6-24.1-1.7-33.8-9.2-20-15.4-23.7-44.2-8.2-64.2 7.5-9.7 18.3-15.9 30.4-17.4 2-0.3 4-0.4 5.9-0.4 10.1 0 19.8 3.3 27.9 9.5 19.9 15.6 23.6 44.3 8.2 64.3z" p-id="5180"></path></svg>