<?xml version="1.0" standalone="no"?><!DOCTYPE svg PUBLIC "-//W3C//DTD SVG 1.1//EN" "http://www.w3.org/Graphics/SVG/1.1/DTD/svg11.dtd"><svg t="1637394645232" class="icon" viewBox="0 0 1024 1024" version="1.1" xmlns="http://www.w3.org/2000/svg" p-id="4788" xmlns:xlink="http://www.w3.org/1999/xlink" width="200" height="200"><defs><style type="text/css"></style></defs><path d="M511.971859 64.303538c77.213569 0 147.111522 31.685653 197.677175 82.920548 50.621934 51.208289 81.911568 122.006751 81.911568 200.149483 0 52.491515-14.19735 101.719706-38.879496 143.917784-22.553669 38.578644-53.843302 71.247694-91.195002 95.221712l0 29.103852 10.81123-0.941442 20.914332-1.88493 8.191566 19.823488c6.771217 16.21838 10.048867 32.205493 9.939373 48.041156 0 16.189727-3.440355 31.822776-10.157337 46.851051l-2.184759 4.943592 2.402723 5.801123c6.771217 16.232706 10.048867 32.216749 9.939373 48.040133 0 16.190751-3.440355 31.822776-10.157337 46.853098l-7.045463 15.863293-16.872273 1.473561-316.611961 28.328185-21.843494 1.981121-7.80885-20.928658c-5.078669-13.69286-8.847505-27.932166-9.501398-43.535539-0.655939-16.286941 2.128477-33.160237 10.429537-50.907437l1.802042-3.891633-2.730181-7.316639c-5.078669-13.678534-8.847505-27.931143-9.501398-43.522236-0.655939-16.286941 2.128477-33.17354 10.429537-50.947346l7.099698-15.263635 16.600073-1.487887 12.013615-1.078565 0-52.190663c-38.60832-23.644513-71.152527-56.518225-94.634334-95.631034-25.775037-42.920532-40.573067-93.13212-40.573067-146.715503 0-78.142731 31.289634-148.941194 81.856309-200.149483C364.914572 95.989191 434.812525 64.303538 511.971859 64.303538L511.971859 64.303538zM450.538695 401.202545c4.91494 2.402723 9.556657 3.672646 13.924127 3.741207 5.843078 0.096191 11.359722-2.075265 16.655332-6.757914l4.533246-3.999081 4.751211 3.767813c7.263427 5.761214 14.08888 9.092076 20.423145 9.324366 5.841032 0.204661 11.685133-2.444679 17.364483-8.600889l4.805446-5.119601 5.242398 4.586458c8.026814 7.126304 15.781428 9.174963 23.261797 8.43716 6.497994-0.62831 13.159718-3.289929 19.986193-6.715959l10.321066-16.751522 24.626887 15.495926-60.067051 97.570199 0 128.845507 47.071062-4.178159 0-51.04456 0-17.310248 15.071254-8.40953c34.894741-19.414165 64.054875-48.040133 84.260056-82.619696 19.495006-33.392528 30.68793-72.381517 30.68793-114.088408 0-61.925375-24.791639-117.979018-64.87352-158.565389-40.08188-40.560788-95.451956-65.679885-156.61292-65.679885-61.10673 0-116.53104 25.119097-156.61292 65.679885-40.027645 40.58637-64.819285 96.640014-64.819285 158.565389 0 42.756803 11.685133 82.594113 31.94455 116.380614 21.024849 35.029818 51.331086 63.781652 87.4804 82.771145l15.782451 8.30106 0 17.773805 0 54.143131 49.036833 0L474.782865 496.178663l-60.012815-97.570199 24.626887-15.495926L450.538695 401.202545 450.538695 401.202545zM568.982294 420.205341c-2.02103 0.423649-4.042059 0.765433-6.117324 0.956791-9.555633 0.955768-19.22076-1.023306-28.942169-7.849782-7.481392 6.198166-15.343453 8.915044-23.535019 8.614192-8.081049-0.286526-16.219403-3.494591-24.354688-9.092076-6.77224 4.695952-14.033621 6.839779-21.734 6.743588-0.873903 0-1.692548-0.026606-2.511193-0.095167l39.862893 64.791655 2.184759 3.589758 0 4.149507 0 134.730541 23.480784 0L527.316336 492.013807l0-4.149507 2.238994-3.589758L568.982294 420.205341 568.982294 420.205341zM595.030553 874.988198l-159.835312 14.280238c5.241374 39.766702 38.880519 70.428026 79.618339 70.428026 44.340881 0 80.271208-36.393885 80.271208-81.309864C595.083765 877.226169 595.083765 876.107695 595.030553 874.988198L595.030553 874.988198zM653.240303 781.049712l-273.471418 24.465205c-0.38374 2.907213-0.491187 5.760191-0.38374 8.544607 0.056282 1.311879 0.163729 2.662643 0.274246 4.01443l273.307689-24.422226c0.38374-2.444679 0.547469-4.91494 0.547469-7.358595C653.514549 784.586259 653.459291 782.810822 653.240303 781.049712L653.240303 781.049712zM653.240303 675.413813l-273.471418 24.463158c-0.38374 2.89391-0.491187 5.733585-0.38374 8.505721 0.056282 1.350764 0.163729 2.703575 0.274246 4.054339l273.307689-24.463158c0.38374-2.457981 0.547469-4.875031 0.547469-7.316639C653.514549 678.908404 653.459291 677.160597 653.240303 675.413813z" p-id="4789"></path></svg>