<?xml version="1.0" standalone="no"?><!DOCTYPE svg PUBLIC "-//W3C//DTD SVG 1.1//EN" "http://www.w3.org/Graphics/SVG/1.1/DTD/svg11.dtd"><svg t="1637394565189" class="icon" viewBox="0 0 1024 1024" version="1.1" xmlns="http://www.w3.org/2000/svg" p-id="5036" xmlns:xlink="http://www.w3.org/1999/xlink" width="200" height="200"><defs><style type="text/css"></style></defs><path d="M848.6 170.9H175.1c-49.6 0-90 40.4-90 90v501.8c0 49.6 40.4 90 90 90h673.5c49.6 0 90-40.4 90-90V260.9c0-49.6-40.4-90-90-90z m30 591.8c0 16.5-13.5 30-30 30H175.1c-16.5 0-30-13.5-30-30V260.9c0-16.5 13.5-30 30-30h673.5c16.5 0 30 13.5 30 30v501.8zM500 570.2c42.4-30.1 70.2-79.7 70.2-135.5 0-91.6-74.5-166.1-166.1-166.1s-166.2 74.4-166.2 166c0 55.9 27.7 105.4 70.2 135.5-60.6 29.5-106.3 86.2-119.7 155.7-2.8 14.6 6.7 28.7 21.3 31.5 1.7 0.3 3.4 0.5 5.1 0.5 12.6 0 23.9-9 26.4-21.8 15-77.7 83.5-134.2 162.8-134.2 79.3 0 147.8 56.4 162.8 134.2 2.8 14.6 16.9 24.2 31.5 21.3 14.6-2.8 24.2-16.9 21.3-31.5-13.3-69.4-59-126.1-119.6-155.6z m-96-23.3c-61.9 0-112.3-50.4-112.3-112.3S342.1 322.4 404 322.4s112.3 50.4 112.3 112.3S465.9 546.9 404 546.9z m406.6-230.8H640.1c-13.8 0-25 11.2-25 25s11.2 25 25 25h170.4c13.8 0 25-11.2 25-25 0.1-13.8-11.1-25-24.9-25z m0 99.6H640.1c-13.8 0-25 11.2-25 25s11.2 25 25 25h170.4c13.8 0 25-11.2 25-25s-11.1-25-24.9-25z m0 106.2H640.1c-13.8 0-25 11.2-25 25s11.2 25 25 25h170.4c13.8 0 25-11.2 25-25s-11.1-25-24.9-25z" p-id="5037"></path></svg>