<?xml version="1.0" standalone="no"?><!DOCTYPE svg PUBLIC "-//W3C//DTD SVG 1.1//EN" "http://www.w3.org/Graphics/SVG/1.1/DTD/svg11.dtd"><svg t="1637394615409" class="icon" viewBox="0 0 1024 1024" version="1.1" xmlns="http://www.w3.org/2000/svg" p-id="3996" xmlns:xlink="http://www.w3.org/1999/xlink" width="200" height="200"><defs><style type="text/css"></style></defs><path d="M761.6 851.2h-448c-19.2 0-32-12.8-32-32s12.8-32 32-32h448c19.2 0 32 12.8 32 32s-12.8 32-32 32z" fill="#333333" p-id="3997"></path><path d="M832 172.8c38.4 0 64 25.6 64 64v640c0 38.4-25.6 64-64 64H192c-38.4 0-64-25.6-64-64v-640c0-38.4 25.6-64 64-64h640m0-64H192c-70.4 0-128 57.6-128 128v640c0 70.4 57.6 128 128 128h640c70.4 0 128-57.6 128-128v-640c0-70.4-57.6-128-128-128z" fill="#333333" p-id="3998"></path><path d="M755.2 371.2l-256 300.8c-12.8 12.8-32 12.8-44.8 6.4-12.8-12.8-12.8-38.4-6.4-51.2l256-300.8c12.8-12.8 32-12.8 44.8-6.4 19.2 19.2 19.2 38.4 6.4 51.2z" fill="#333333" p-id="3999"></path><path d="M320 499.2l128 172.8c12.8 12.8 32 12.8 44.8 6.4 19.2-12.8 19.2-38.4 6.4-51.2l-128-172.8c-12.8-12.8-32-12.8-44.8 0-12.8 12.8-19.2 32-6.4 44.8zM313.6 211.2c-19.2 0-32-12.8-32-32v-128c0-19.2 12.8-32 32-32s32 12.8 32 32v128c0 19.2-12.8 32-32 32zM697.6 211.2c-19.2 0-32-12.8-32-32v-128c0-19.2 12.8-32 32-32s32 12.8 32 32v128c0 19.2-12.8 32-32 32z" fill="#333333" p-id="4000"></path></svg>